<?xml version="1.0" encoding="utf-8"?>
<!-- Generator: Adobe Illustrator 19.0.0, SVG Export Plug-In . SVG Version: 6.00 Build 0)  -->
<svg version="1.1" id="layer" xmlns="http://www.w3.org/2000/svg" xmlns:xlink="http://www.w3.org/1999/xlink" x="0px" y="0px"
	 viewBox="-153 200 652 150" style="enable-background:new -153 200 652 652;" xml:space="preserve">
<style type="text/css">
	.st0{fill:#BD00FF;}
</style>
<g>
	<polygon class="st0" points="-88,251.6 -119.9,251.6 -119.9,219.2 -131.8,219.2 -131.8,287 -119.9,287 -119.9,262.3 -88,262.3 
		-88,287 -76.1,287 -76.1,219.2 -88,219.2 	"/>
	<polygon class="st0" points="-31.8,262 -6.7,262 -6.7,251.6 -31.8,251.6 -31.7,229.8 0,229.8 0,219.1 -43.6,219.1 -43.6,287 
		1.4,287 1.4,276.4 -31.7,276.4 	"/>
	<path class="st0" d="M63.4,255.1L32,218.5h-2.2V287h11.4v-35.2c0-2.1-0.1-4.8-0.2-6.8c1.2,1.7,2.9,4,4.3,5.8l16.9,20.4h1.9
		L81,250.8c1.6-1.7,3.2-4,4.4-5.7c-0.1,2-0.2,4.7-0.2,6.8V287h11.4v-68.5h-2.2L63.4,255.1z"/>
	<polygon class="st0" points="202.6,262 227.7,262 227.7,251.6 202.6,251.6 202.6,229.8 234.4,229.8 234.4,219.1 190.8,219.1 
		190.8,287 235.8,287 235.8,276.4 202.6,276.4 	"/>
	<path class="st0" d="M286.3,219.2h-19V287h19c21.6,0,36.2-13.6,36.2-33.9C322.4,232.8,307.9,219.2,286.3,219.2 M285.6,276.4h-6.4
		v-46.6h6.4c15.6,0,24.6,8.5,24.6,23.3C310.2,267.9,301.2,276.4,285.6,276.4"/>
	<path class="st0" d="M372.2,218.5H370L341,287h11.6l3.8-9.4h29.3l3.8,9.4h12.4l-29.5-68.1L372.2,218.5z M381.4,267.4h-20.8
		l7.9-19.6c1-2.3,1.9-5.3,2.5-7.4c0.6,2.1,1.6,5,2.6,7.3L381.4,267.4z"/>
</g>
<g>
	<polygon class="st0" points="437.6,219.1 425.7,219.1 425.7,287 468.2,287 468.2,276.4 437.6,276.4 	"/>
	<path class="st0" d="M139.5,243.4c-2.5-1.3-3.9-3.3-4.2-5.9c-0.4-3.2,1.5-6.4,4.4-7.7c3-1.3,6.3-0.8,9.2,2.1l7.1-8.3
		c-4-4-12.4-7.5-20.6-4c-8.4,3.6-11.9,12.6-11.1,19.3c0.8,6.3,4.3,11.4,10.5,14.3c5.1,2.4,15,6.4,15.6,12.7
		c0.6,5.7-3.2,11.6-9.9,11.6c-3,0-6.1-1.6-9.6-4.4l-7,8.3c9.1,8.2,18.9,7.7,24.6,5.3c8.6-3.5,14-12.5,13-21.7
		C160.1,252.3,149.7,248.5,139.5,243.4"/>
</g>
<g>
	<path d="M8.3,332.6l1.4-1.7c2.1,1.9,4.1,2.9,6.9,2.9c2.7,0,4.5-1.4,4.5-3.4v-0.1c0-1.9-1-3-5.3-3.8c-4.7-1-6.8-2.5-6.8-5.9v-0.1
		c0-3.2,2.8-5.5,6.7-5.5c3,0,5.1,0.8,7.1,2.5l-1.3,1.8c-1.9-1.5-3.8-2.2-5.8-2.2c-2.6,0-4.3,1.4-4.3,3.3v0.1c0,1.9,1,3,5.5,3.9
		c4.5,1,6.6,2.6,6.6,5.7v0.1c0,3.5-2.9,5.7-6.9,5.7C13.4,335.8,10.8,334.7,8.3,332.6"/>
	<path d="M27.3,325.5L27.3,325.5c0-5.8,4.3-10.5,10.2-10.5c3.7,0,5.9,1.3,7.9,3.2l-1.6,1.7c-1.7-1.6-3.6-2.8-6.4-2.8
		c-4.5,0-7.8,3.7-7.8,8.3v0.1c0,4.7,3.4,8.4,7.8,8.4c2.8,0,4.6-1.1,6.5-2.9l1.5,1.5c-2.1,2.1-4.4,3.6-8.1,3.6
		C31.6,335.9,27.3,331.3,27.3,325.5"/>
	<path d="M57.1,315.1h2.1l9.2,20.4H66l-2.4-5.4h-11l-2.4,5.4h-2.3L57.1,315.1z M62.7,328.1l-4.6-10.3l-4.6,10.3H62.7z"/>
	<polygon points="72.4,315.3 74.6,315.3 87.4,331.5 87.4,315.3 89.6,315.3 89.6,335.5 87.8,335.5 74.7,318.9 74.7,335.5 72.4,335.5 
			"/>
	<path d="M95.3,315.3h7c6.4,0,10.8,4.4,10.8,10.1v0.1c0,5.7-4.4,10.1-10.8,10.1h-7V315.3z M97.6,317.4v16h4.7c5.1,0,8.4-3.5,8.4-8
		v-0.1c0-4.5-3.3-8-8.4-8H97.6z"/>
	<rect x="118.2" y="315.3" width="2.3" height="20.3"/>
	<polygon points="126.4,315.3 128.5,315.3 141.3,331.5 141.3,315.3 143.5,315.3 143.5,335.5 141.7,335.5 128.6,318.9 128.6,335.5 
		126.4,335.5 	"/>
	<path d="M156.8,315.1h2.1l9.2,20.4h-2.5l-2.4-5.4h-11l-2.4,5.4h-2.3L156.8,315.1z M162.4,328.1l-4.6-10.3l-4.6,10.3H162.4z"/>
	<polygon points="167.5,315.3 170.1,315.3 177.3,332.7 184.5,315.3 187,315.3 178.2,335.7 176.2,335.7 	"/>
	<rect x="191.2" y="315.3" width="2.3" height="20.3"/>
	<path d="M206.9,315.1h2.1l9.2,20.4h-2.5l-2.4-5.4h-11l-2.4,5.4h-2.3L206.9,315.1z M212.5,328.1l-4.6-10.3l-4.6,10.3H212.5z"/>
	<polygon points="222.3,315.3 224.4,315.3 237.2,331.5 237.2,315.3 239.4,315.3 239.4,335.5 237.6,335.5 224.5,318.9 224.5,335.5 
		222.3,335.5 	"/>
	<path d="M261.3,315.1h2.1l9.2,20.4h-2.5l-2.4-5.4h-11l-2.4,5.4h-2.3L261.3,315.1z M267,328.1l-4.6-10.3l-4.6,10.3H267z"/>
	<polygon points="276.7,315.3 279,315.3 279,333.4 290.4,333.4 290.4,335.5 276.7,335.5 	"/>
	<path d="M294.6,315.3h7.6c4.6,0,7.6,2.4,7.6,6.4v0.1c0,4.4-3.6,6.6-8,6.6h-4.9v7.2h-2.3V315.3z M301.9,326.3c3.4,0,5.6-1.8,5.6-4.5
		v-0.1c0-2.9-2.2-4.4-5.4-4.4h-5.1v8.9H301.9z"/>
	<path d="M312.6,332.6l1.4-1.7c2.1,1.9,4.1,2.9,6.9,2.9c2.7,0,4.5-1.4,4.5-3.4v-0.1c0-1.9-1-3-5.3-3.8c-4.7-1-6.8-2.5-6.8-5.9v-0.1
		c0-3.2,2.8-5.5,6.7-5.5c3,0,5.1,0.8,7.1,2.5l-1.3,1.8c-1.9-1.5-3.8-2.2-5.8-2.2c-2.6,0-4.3,1.4-4.3,3.3v0.1c0,1.9,1,3,5.5,3.9
		c4.5,1,6.6,2.6,6.6,5.7v0.1c0,3.5-2.9,5.7-6.9,5.7C317.7,335.8,315.1,334.7,312.6,332.6"/>
</g>
</svg>
