<svg width="205" height="92" viewBox="0 0 205 92" fill="none" xmlns="http://www.w3.org/2000/svg">
<path d="M41.6797 54.4756V57.6396H30.459V54.4756H41.6797ZM31.5576 45.6719V67H27.5293V45.6719H31.5576ZM44.668 45.6719V67H40.6396V45.6719H44.668ZM53.1201 65.2422L57.3682 51.1504H61.5137L55.1562 69.4023C55.0098 69.793 54.8193 70.2178 54.585 70.6768C54.3604 71.1357 54.0576 71.5703 53.6768 71.9805C53.2959 72.4004 52.8174 72.7422 52.2412 73.0059C51.6748 73.2695 50.9863 73.4014 50.1758 73.4014C49.8242 73.4014 49.5117 73.377 49.2383 73.3281C48.9648 73.2793 48.6768 73.2158 48.374 73.1377V70.2373C48.4717 70.2471 48.584 70.252 48.7109 70.252C48.8477 70.2617 48.9648 70.2666 49.0625 70.2666C49.6289 70.2666 50.0977 70.1982 50.4688 70.0615C50.8398 69.9346 51.1377 69.7246 51.3623 69.4316C51.5967 69.1484 51.792 68.7773 51.9482 68.3184L53.1201 65.2422ZM51.0254 51.1504L54.6143 62.8252L55.2441 66.9121L52.5781 67.3955L46.8506 51.1504H51.0254ZM70.8887 51.1504V53.9336H61.8066V51.1504H70.8887ZM64.2383 47.2539H68.1201V62.4297C68.1201 62.8984 68.1836 63.2598 68.3105 63.5137C68.4375 63.7676 68.6279 63.9385 68.8818 64.0264C69.1357 64.1143 69.4385 64.1582 69.79 64.1582C70.0439 64.1582 70.2783 64.1436 70.4932 64.1143C70.708 64.085 70.8887 64.0557 71.0352 64.0264L71.0498 66.9268C70.7275 67.0342 70.3613 67.1221 69.9512 67.1904C69.5508 67.2588 69.0967 67.293 68.5889 67.293C67.7197 67.293 66.958 67.1465 66.3037 66.8535C65.6494 66.5508 65.1416 66.0674 64.7803 65.4033C64.4189 64.7295 64.2383 63.8408 64.2383 62.7373V47.2539ZM80.9668 51.1504V53.9336H71.8848V51.1504H80.9668ZM74.3164 47.2539H78.1982V62.4297C78.1982 62.8984 78.2617 63.2598 78.3887 63.5137C78.5156 63.7676 78.7061 63.9385 78.96 64.0264C79.2139 64.1143 79.5166 64.1582 79.8682 64.1582C80.1221 64.1582 80.3564 64.1436 80.5713 64.1143C80.7861 64.085 80.9668 64.0557 81.1133 64.0264L81.1279 66.9268C80.8057 67.0342 80.4395 67.1221 80.0293 67.1904C79.6289 67.2588 79.1748 67.293 78.667 67.293C77.7979 67.293 77.0361 67.1465 76.3818 66.8535C75.7275 66.5508 75.2197 66.0674 74.8584 65.4033C74.4971 64.7295 74.3164 63.8408 74.3164 62.7373V47.2539ZM90.6641 67.293C89.4629 67.293 88.3838 67.0977 87.4268 66.707C86.4697 66.3164 85.6543 65.7744 84.9805 65.0811C84.3164 64.3779 83.8037 63.5625 83.4424 62.6348C83.0908 61.6973 82.915 60.6914 82.915 59.6172V59.0312C82.915 57.8105 83.0908 56.7021 83.4424 55.7061C83.7939 54.7002 84.292 53.8359 84.9365 53.1133C85.5811 52.3906 86.3525 51.834 87.251 51.4434C88.1494 51.0527 89.1406 50.8574 90.2246 50.8574C91.3477 50.8574 92.3389 51.0479 93.1982 51.4287C94.0576 51.7998 94.7754 52.3271 95.3516 53.0107C95.9277 53.6943 96.3623 54.5146 96.6553 55.4717C96.9482 56.4189 97.0947 57.4688 97.0947 58.6211V60.2471H84.6729V57.5811H93.2861V57.2881C93.2666 56.6729 93.1494 56.1113 92.9346 55.6035C92.7197 55.0859 92.3877 54.6758 91.9385 54.373C91.4893 54.0605 90.9082 53.9043 90.1953 53.9043C89.6191 53.9043 89.1162 54.0312 88.6865 54.2852C88.2666 54.5293 87.915 54.8809 87.6318 55.3398C87.3584 55.7891 87.1533 56.3262 87.0166 56.9512C86.8799 57.5762 86.8115 58.2695 86.8115 59.0312V59.6172C86.8115 60.2812 86.8994 60.8965 87.0752 61.4629C87.2607 62.0293 87.5293 62.5225 87.8809 62.9424C88.2422 63.3525 88.6719 63.6748 89.1699 63.9092C89.6777 64.1338 90.2539 64.2461 90.8984 64.2461C91.709 64.2461 92.4414 64.0898 93.0957 63.7773C93.7598 63.4551 94.3359 62.9814 94.8242 62.3564L96.7725 64.3779C96.4404 64.8662 95.9912 65.335 95.4248 65.7842C94.8682 66.2334 94.1943 66.5996 93.4033 66.8828C92.6123 67.1562 91.6992 67.293 90.6641 67.293ZM108.184 59.2217H102.69V56.0576H108.184C109.082 56.0576 109.81 55.9111 110.366 55.6182C110.933 55.3154 111.348 54.9053 111.611 54.3877C111.875 53.8604 112.007 53.2598 112.007 52.5859C112.007 51.9316 111.875 51.3213 111.611 50.7549C111.348 50.1885 110.933 49.7295 110.366 49.3779C109.81 49.0264 109.082 48.8506 108.184 48.8506H104.009V67H99.9805V45.6719H108.184C109.844 45.6719 111.26 45.9697 112.432 46.5654C113.613 47.1514 114.512 47.9668 115.127 49.0117C115.752 50.0469 116.064 51.2285 116.064 52.5566C116.064 53.9336 115.752 55.1201 115.127 56.1162C114.512 57.1123 113.613 57.8789 112.432 58.416C111.26 58.9531 109.844 59.2217 108.184 59.2217ZM118.042 59.2363V58.9287C118.042 57.7666 118.208 56.6973 118.54 55.7207C118.872 54.7344 119.355 53.8799 119.99 53.1572C120.625 52.4346 121.401 51.873 122.319 51.4727C123.237 51.0625 124.282 50.8574 125.454 50.8574C126.646 50.8574 127.7 51.0625 128.618 51.4727C129.546 51.873 130.327 52.4346 130.962 53.1572C131.597 53.8799 132.08 54.7344 132.412 55.7207C132.744 56.6973 132.91 57.7666 132.91 58.9287V59.2363C132.91 60.3887 132.744 61.458 132.412 62.4443C132.08 63.4209 131.597 64.2754 130.962 65.0078C130.327 65.7305 129.551 66.292 128.633 66.6924C127.715 67.0928 126.665 67.293 125.483 67.293C124.312 67.293 123.262 67.0928 122.334 66.6924C121.406 66.292 120.625 65.7305 119.99 65.0078C119.355 64.2754 118.872 63.4209 118.54 62.4443C118.208 61.458 118.042 60.3887 118.042 59.2363ZM121.909 58.9287V59.2363C121.909 59.9297 121.978 60.5791 122.114 61.1846C122.251 61.79 122.461 62.3223 122.744 62.7812C123.027 63.2402 123.394 63.6016 123.843 63.8652C124.302 64.1191 124.849 64.2461 125.483 64.2461C126.108 64.2461 126.646 64.1191 127.095 63.8652C127.544 63.6016 127.91 63.2402 128.193 62.7812C128.486 62.3223 128.701 61.79 128.838 61.1846C128.975 60.5791 129.043 59.9297 129.043 59.2363V58.9287C129.043 58.2451 128.975 57.6055 128.838 57.0098C128.701 56.4043 128.486 55.8721 128.193 55.4131C127.91 54.9443 127.539 54.5781 127.08 54.3145C126.631 54.041 126.089 53.9043 125.454 53.9043C124.829 53.9043 124.292 54.041 123.843 54.3145C123.394 54.5781 123.027 54.9443 122.744 55.4131C122.461 55.8721 122.251 56.4043 122.114 57.0098C121.978 57.6055 121.909 58.2451 121.909 58.9287ZM139.59 54.3877V67H135.723V51.1504H139.385L139.59 54.3877ZM144.409 51.0479L144.351 54.6514C144.136 54.6123 143.892 54.583 143.618 54.5635C143.354 54.5439 143.105 54.5342 142.871 54.5342C142.275 54.5342 141.753 54.6172 141.304 54.7832C140.854 54.9395 140.479 55.1689 140.176 55.4717C139.883 55.7744 139.658 56.1455 139.502 56.585C139.346 57.0146 139.258 57.5029 139.238 58.0498L138.403 57.9473C138.403 56.9414 138.506 56.0088 138.711 55.1494C138.916 54.29 139.214 53.5381 139.604 52.8936C139.995 52.249 140.483 51.751 141.069 51.3994C141.665 51.0381 142.349 50.8574 143.12 50.8574C143.335 50.8574 143.564 50.877 143.809 50.916C144.062 50.9453 144.263 50.9893 144.409 51.0479ZM154.766 51.1504V53.9336H145.684V51.1504H154.766ZM148.115 47.2539H151.997V62.4297C151.997 62.8984 152.061 63.2598 152.188 63.5137C152.314 63.7676 152.505 63.9385 152.759 64.0264C153.013 64.1143 153.315 64.1582 153.667 64.1582C153.921 64.1582 154.155 64.1436 154.37 64.1143C154.585 64.085 154.766 64.0557 154.912 64.0264L154.927 66.9268C154.604 67.0342 154.238 67.1221 153.828 67.1904C153.428 67.2588 152.974 67.293 152.466 67.293C151.597 67.293 150.835 67.1465 150.181 66.8535C149.526 66.5508 149.019 66.0674 148.657 65.4033C148.296 64.7295 148.115 63.8408 148.115 62.7373V47.2539ZM166.074 63.6309V56.3213C166.074 55.7842 165.981 55.3203 165.796 54.9297C165.61 54.5391 165.327 54.2363 164.946 54.0215C164.565 53.8066 164.082 53.6992 163.496 53.6992C162.979 53.6992 162.524 53.7871 162.134 53.9629C161.753 54.1387 161.46 54.3877 161.255 54.71C161.05 55.0225 160.947 55.3838 160.947 55.7939H157.065C157.065 55.1396 157.222 54.5195 157.534 53.9336C157.847 53.3379 158.291 52.8105 158.867 52.3516C159.453 51.8828 160.151 51.5166 160.962 51.2529C161.782 50.9893 162.7 50.8574 163.716 50.8574C164.917 50.8574 165.986 51.0625 166.924 51.4727C167.871 51.873 168.613 52.4785 169.15 53.2891C169.697 54.0996 169.971 55.1201 169.971 56.3506V63.2646C169.971 64.0557 170.02 64.7344 170.117 65.3008C170.225 65.8574 170.381 66.3408 170.586 66.751V67H166.646C166.46 66.5996 166.318 66.0918 166.221 65.4766C166.123 64.8516 166.074 64.2363 166.074 63.6309ZM166.616 57.3467L166.646 59.6465H164.199C163.594 59.6465 163.062 59.71 162.603 59.8369C162.144 59.9541 161.768 60.1299 161.475 60.3643C161.182 60.5889 160.962 60.8623 160.815 61.1846C160.669 61.4971 160.596 61.8535 160.596 62.2539C160.596 62.6445 160.684 62.9961 160.859 63.3086C161.045 63.6211 161.309 63.8701 161.65 64.0557C162.002 64.2314 162.412 64.3193 162.881 64.3193C163.564 64.3193 164.16 64.1826 164.668 63.9092C165.176 63.626 165.571 63.2842 165.854 62.8838C166.138 62.4834 166.289 62.1025 166.309 61.7412L167.422 63.4111C167.285 63.8115 167.08 64.2363 166.807 64.6855C166.533 65.1348 166.182 65.5547 165.752 65.9453C165.322 66.3359 164.805 66.6582 164.199 66.9121C163.594 67.166 162.891 67.293 162.09 67.293C161.064 67.293 160.146 67.0879 159.336 66.6777C158.525 66.2676 157.886 65.7061 157.417 64.9932C156.948 64.2803 156.714 63.4697 156.714 62.5615C156.714 61.7217 156.87 60.9795 157.183 60.335C157.495 59.6904 157.959 59.1484 158.574 58.709C159.189 58.2598 159.951 57.9229 160.859 57.6982C161.777 57.4639 162.827 57.3467 164.009 57.3467H166.616ZM177.559 44.5V67H173.677V44.5H177.559Z" fill="black"/>
<path d="M152.139 32.5747L137.681 27.3232V21.7861L156.753 29.894V33.7612L152.139 32.5747ZM137.681 37.0791L152.161 31.6738L156.753 30.6411V34.4863L137.681 42.5942V37.0791Z" fill="#BD00FF"/>
</svg>
